# xmcd
#
# Track frame offsets:
# 150
# 18933
# 30549
# 44261
# 57659
# 72157
# 83388
# 96791
# 112982
# 126356
# 138144
# 150272
# 162776
# 175472
# 191898
#
# Disc length: 2790 seconds
#
#
# Revision: 0
# Processed by: cddbd v1.5.1PL0 Copyright (c) Steve Scherf et al.
# Submitted via: FreeRIP 2.90 
#
DISCID=bb0ae40f
DTITLE=Various Artist - Superstars of Country - Duets
DYEAR=2005
DGENRE=Country
TTITLE0=Islands in the Stream-Kenny Rogers and Dolly Parton
TTITLE1=All I Have to Do is Dream-Bobbie Gentry and Glen Campbell
TTITLE2=If I Were a Carpenter-Jonny Cash and June Carter
TTITLE3=We're Going to Hold On-George Jones and Tammy Wynette
TTITLE4=On My Knees-Charlie Rich and Janie Fricke
TTITLE5=Louisiana Woman Mississippi Man-Lorette Lynn and Conway Twitty
TTITLE6=Paradise Tonight-Charlie McLain and Mickey Gilley
TTITLE7=We Believe in Happy Endings-Earl Thomas Conley and Emmylou Harris
TTITLE8=Don't Let Me Cross Over-Carl Butler and Pearl
TTITLE9=Yes, Mr Peters-Roy Drusky and Priscilla Mitchel
TTITLE10=We Must Have Been Out of Our Minds-George Jones and Melba Montgomery
TTITLE11=For Loving You-Bill Anderson and Jan Howard
TTITLE12=Please Don't Stop Loving Me-Porter Wagoner and Dolly Parton
TTITLE13=A Place to Fall Apart-Merle Haggard and Janie Fricke
TTITLE14=We've Got Tonight-Kenny Rogers and Sheena Easton
EXTD=Time Life Collection
EXTT0=
EXTT1=
EXTT2=
EXTT3=
EXTT4=
EXTT5=
EXTT6=
EXTT7=
EXTT8=
EXTT9=
EXTT10=
EXTT11=
EXTT12=
EXTT13=
EXTT14=
PLAYORDER=
